<?xml version="1.0" encoding="utf-8"?>
<!-- Uploaded to: SVG Repo, www.svgrepo.com, Generator: SVG Repo Mixer Tools -->
<svg fill="#000000" width="800px" height="800px" viewBox="0 0 32 32" version="1.1" xmlns="http://www.w3.org/2000/svg">
<title>jss</title>
<path d="M24.997 20.25c0.461 0.374 0.992 0.688 1.565 0.919l0.042 0.015 0.554 0.237c1.012 0.444 1.616 0.712 1.616 1.475 0 0.635-0.587 1.093-1.507 1.093-0.006 0-0.013 0-0.020 0-0.946 0-1.765-0.543-2.163-1.333l-0.006-0.014-0.080 0.046zM11.851 15.035v7.545c0 1.11-0.46 1.395-1.188 1.395-0.762 0-1.080-0.522-1.428-1.141l-1.807 1.093c0.553 1.208 1.751 2.032 3.142 2.032 0.066 0 0.131-0.002 0.196-0.005l-0.009 0c0.096 0.011 0.208 0.017 0.32 0.017 1.664 0 3.014-1.349 3.014-3.014 0-0.122-0.007-0.243-0.021-0.362l0.001 0.014v-7.575zM19.184 14.909c-0.085-0.009-0.184-0.014-0.284-0.014-1.631 0-2.954 1.316-2.965 2.944v0.001c0 1.806 1.062 2.662 2.664 3.343l0.554 0.237c1.012 0.444 1.616 0.712 1.616 1.475 0 0.635-0.587 1.093-1.506 1.093-0.006 0-0.014 0-0.021 0-0.945 0-1.764-0.543-2.162-1.333l-0.006-0.014-1.803 1.048c0.729 1.365 2.144 2.278 3.773 2.278 0.095 0 0.19-0.003 0.284-0.009l-0.013 0.001c2.108 0 3.678-1.095 3.678-3.093 0-1.853-1.065-2.678-2.95-3.486l-0.555-0.237c-0.952-0.412-1.365-0.682-1.365-1.347 0.006-0.529 0.436-0.956 0.966-0.956 0.034 0 0.067 0.002 0.101 0.005l-0.004-0c0.008-0 0.017-0 0.026-0 0.632 0 1.174 0.389 1.399 0.94l0.004 0.010 1.727-1.108c-0.555-1.068-1.653-1.786-2.918-1.786-0.083 0-0.166 0.003-0.248 0.009l0.011-0.001zM1.454 4.577h23.093v11.474c-0.379 0.477-0.609 1.089-0.609 1.754 0 0.012 0 0.025 0 0.037l-0-0.002c-0.001 0.034-0.002 0.074-0.002 0.114 0 0.688 0.229 1.323 0.615 1.833l-0.006-0.008v3.17l-1.272 0.74c0.305 0.598 0.736 1.092 1.26 1.462l0.012 0.008v2.262h-23.091zM1.004 4.128v23.743h23.993v-2.437c0.649 0.331 1.415 0.526 2.226 0.526 0.033 0 0.066-0 0.099-0.001l-0.005 0c2.108 0 3.678-1.096 3.678-3.093 0-1.853-1.065-2.678-2.949-3.486l-0.555-0.237c-0.952-0.412-1.365-0.682-1.365-1.347 0.006-0.529 0.436-0.956 0.966-0.956 0.034 0 0.067 0.002 0.101 0.005l-0.004-0c0.008-0 0.017-0 0.026-0 0.632 0 1.173 0.389 1.397 0.94l0.004 0.010 1.728-1.108c-0.555-1.068-1.653-1.786-2.919-1.786-0.083 0-0.166 0.003-0.247 0.009l0.011-0.001c-0.030-0.001-0.066-0.002-0.102-0.002-0.788 0-1.514 0.261-2.098 0.701l0.009-0.006v-11.474z"></path>
</svg>